  0
SECTION
  2
HEADER
  9
$ACADVER
  1
AC1009
  0
ENDSEC
  0
SECTION
  2
TABLES
  0
TABLE
  2
LAYER
  70
1
  0
LAYER
  2
Layer_0
  70
0
  62
7
  6
CONTINUOUS
  0
ENDTAB
  0
ENDSEC
  0
SECTION
  2
ENTITIES
  0
POLYLINE
  5
90
  8
Layer_0
  62
7
  70
1
  66
1
  10
0
  20
0
  30
0
  0
VERTEX
  5
90
  8
Layer_0
  10
524.35944
  20
640.98508
  0
VERTEX
  5
91
  8
Layer_0
  10
444.35944
  20
640.98508
  0
VERTEX
  5
92
  8
Layer_0
  10
444.35944
  20
641.60016
  42
-0.31242841
  0
VERTEX
  5
93
  8
Layer_0
  10
445.65582
  20
643.47232
  0
VERTEX
  5
94
  8
Layer_0
  10
518.51923
  20
670.85722
  42
-0.090119616
  0
VERTEX
  5
95
  8
Layer_0
  10
519.22284
  20
670.98508
  0
VERTEX
  5
96
  8
Layer_0
  10
522.85944
  20
670.98508
  0
VERTEX
  5
97
  8
Layer_0
  10
522.85944
  20
655.98508
  0
VERTEX
  5
98
  8
Layer_0
  10
524.35944
  20
655.98508
  0
VERTEX
  5
99
  8
Layer_0
  10
525.85944
  20
655.98508
  0
VERTEX
  5
9a
  8
Layer_0
  10
525.85944
  20
670.98508
  0
VERTEX
  5
9b
  8
Layer_0
  10
529.49603
  20
670.98508
  42
-0.090119616
  0
VERTEX
  5
9c
  8
Layer_0
  10
530.19965
  20
670.85722
  0
VERTEX
  5
9d
  8
Layer_0
  10
603.06305
  20
643.47232
  42
-0.31242848
  0
VERTEX
  5
9e
  8
Layer_0
  10
604.35944
  20
641.60016
  0
VERTEX
  5
9f
  8
Layer_0
  10
604.35944
  20
640.98508
  0
SEQEND
  0
POLYLINE
  5
a1
  8
Layer_0
  62
7
  70
1
  66
1
  10
0
  20
0
  30
0
  0
VERTEX
  5
a1
  8
Layer_0
  10
571.5
  20
694.5
  0
VERTEX
  5
a2
  8
Layer_0
  10
578.78174
  20
694.5
  42
-0.27763269
  0
VERTEX
  5
a3
  8
Layer_0
  10
579.66522
  20
693.96846
  42
-0.27762939
  0
VERTEX
  5
a4
  8
Layer_0
  10
579.6095
  20
692.9389
  0
VERTEX
  5
a5
  8
Layer_0
  10
572.32776
  20
682.19643
  42
-0.32943335
  0
VERTEX
  5
a6
  8
Layer_0
  10
571.20654
  20
681.80154
  42
-0.32943372
  0
VERTEX
  5
a7
  8
Layer_0
  10
570.5
  20
682.75751
  0
VERTEX
  5
a8
  8
Layer_0
  10
570.5
  20
693.5
  42
-0.41421356
  0
SEQEND
  0
POLYLINE
  5
aa
  8
Layer_0
  62
7
  70
1
  66
1
  10
0
  20
0
  30
0
  0
VERTEX
  5
aa
  8
Layer_0
  10
577.21826
  20
679.5
  0
VERTEX
  5
ab
  8
Layer_0
  10
593.78174
  20
679.5
  42
0.27763211
  0
VERTEX
  5
ac
  8
Layer_0
  10
594.66522
  20
680.03154
  42
0.27763248
  0
VERTEX
  5
ad
  8
Layer_0
  10
594.6095
  20
681.0611
  0
VERTEX
  5
ae
  8
Layer_0
  10
586.32776
  20
693.27884
  42
0.24871941
  0
VERTEX
  5
af
  8
Layer_0
  10
585.5
  20
693.71776
  42
0.24872067
  0
VERTEX
  5
b0
  8
Layer_0
  10
584.67224
  20
693.27884
  0
VERTEX
  5
b1
  8
Layer_0
  10
576.3905
  20
681.0611
  42
0.27763246
  0
VERTEX
  5
b2
  8
Layer_0
  10
576.33478
  20
680.03154
  42
0.27763213
  0
SEQEND
  0
POLYLINE
  5
b4
  8
Layer_0
  62
7
  70
1
  66
1
  10
0
  20
0
  30
0
  0
VERTEX
  5
b4
  8
Layer_0
  10
592.21826
  20
694.5
  0
VERTEX
  5
b5
  8
Layer_0
  10
599.5
  20
694.5
  42
-0.41421356
  0
VERTEX
  5
b6
  8
Layer_0
  10
600.5
  20
693.5
  0
VERTEX
  5
b7
  8
Layer_0
  10
600.5
  20
682.75751
  42
-0.32943337
  0
VERTEX
  5
b8
  8
Layer_0
  10
599.79346
  20
681.80154
  42
-0.3294335
  0
VERTEX
  5
b9
  8
Layer_0
  10
598.67224
  20
682.19643
  0
VERTEX
  5
ba
  8
Layer_0
  10
591.3905
  20
692.9389
  42
-0.27763254
  0
VERTEX
  5
bb
  8
Layer_0
  10
591.33478
  20
693.96846
  42
-0.27763333
  0
SEQEND
  0
POLYLINE
  5
bd
  8
Layer_0
  62
7
  70
1
  66
1
  10
0
  20
0
  30
0
  0
VERTEX
  5
bd
  8
Layer_0
  10
529.67224
  20
693.27884
  0
VERTEX
  5
be
  8
Layer_0
  10
521.3905
  20
681.0611
  42
0.27763485
  0
VERTEX
  5
bf
  8
Layer_0
  10
521.33478
  20
680.03154
  42
0.27763088
  0
VERTEX
  5
c0
  8
Layer_0
  10
522.21826
  20
679.5
  0
VERTEX
  5
c1
  8
Layer_0
  10
538.78174
  20
679.5
  42
0.27763056
  0
VERTEX
  5
c2
  8
Layer_0
  10
539.66522
  20
680.03154
  42
0.27763414
  0
VERTEX
  5
c3
  8
Layer_0
  10
539.6095
  20
681.0611
  0
VERTEX
  5
c4
  8
Layer_0
  10
531.32776
  20
693.27884
  42
0.24872026
  0
VERTEX
  5
c5
  8
Layer_0
  10
530.5
  20
693.71776
  42
0.24872026
  0
SEQEND
  0
POLYLINE
  5
c7
  8
Layer_0
  62
7
  70
1
  66
1
  10
0
  20
0
  30
0
  0
VERTEX
  5
c7
  8
Layer_0
  10
544.5
  20
694.5
  0
VERTEX
  5
c8
  8
Layer_0
  10
537.21826
  20
694.5
  42
0.27763088
  0
VERTEX
  5
c9
  8
Layer_0
  10
536.33478
  20
693.96846
  42
0.27763414
  0
VERTEX
  5
ca
  8
Layer_0
  10
536.3905
  20
692.9389
  0
VERTEX
  5
cb
  8
Layer_0
  10
543.67224
  20
682.19643
  42
0.32943008
  0
VERTEX
  5
cc
  8
Layer_0
  10
544.79346
  20
681.80154
  42
0.32943372
  0
VERTEX
  5
cd
  8
Layer_0
  10
545.5
  20
682.75751
  0
VERTEX
  5
ce
  8
Layer_0
  10
545.5
  20
693.5
  42
0.41421356
  0
SEQEND
  0
POLYLINE
  5
d0
  8
Layer_0
  62
7
  70
1
  66
1
  10
0
  20
0
  30
0
  0
VERTEX
  5
d0
  8
Layer_0
  10
515.5
  20
693.5
  0
VERTEX
  5
d1
  8
Layer_0
  10
515.5
  20
682.75751
  42
0.32943372
  0
VERTEX
  5
d2
  8
Layer_0
  10
516.20654
  20
681.80154
  42
0.32943008
  0
VERTEX
  5
d3
  8
Layer_0
  10
517.32776
  20
682.19643
  0
VERTEX
  5
d4
  8
Layer_0
  10
524.6095
  20
692.9389
  42
0.27763414
  0
VERTEX
  5
d5
  8
Layer_0
  10
524.66522
  20
693.96846
  42
0.27763088
  0
VERTEX
  5
d6
  8
Layer_0
  10
523.78174
  20
694.5
  0
VERTEX
  5
d7
  8
Layer_0
  10
516.5
  20
694.5
  42
0.41421356
  0
SEQEND
  0
POLYLINE
  5
d9
  8
Layer_0
  62
7
  70
1
  66
1
  10
0
  20
0
  30
0
  0
VERTEX
  5
d9
  8
Layer_0
  10
474.67224
  20
693.27884
  0
VERTEX
  5
da
  8
Layer_0
  10
466.3905
  20
681.0611
  42
0.27763485
  0
VERTEX
  5
db
  8
Layer_0
  10
466.33478
  20
680.03154
  42
0.27763088
  0
VERTEX
  5
dc
  8
Layer_0
  10
467.21826
  20
679.5
  0
VERTEX
  5
dd
  8
Layer_0
  10
483.78174
  20
679.5
  42
0.27763056
  0
VERTEX
  5
de
  8
Layer_0
  10
484.66522
  20
680.03154
  42
0.27763414
  0
VERTEX
  5
df
  8
Layer_0
  10
484.6095
  20
681.0611
  0
VERTEX
  5
e0
  8
Layer_0
  10
476.32776
  20
693.27884
  42
0.24872532
  0
VERTEX
  5
e1
  8
Layer_0
  10
475.5
  20
693.71776
  42
0.24872532
  0
SEQEND
  0
POLYLINE
  5
e3
  8
Layer_0
  62
7
  70
1
  66
1
  10
0
  20
0
  30
0
  0
VERTEX
  5
e3
  8
Layer_0
  10
489.5
  20
694.5
  0
VERTEX
  5
e4
  8
Layer_0
  10
482.21826
  20
694.5
  42
0.27763088
  0
VERTEX
  5
e5
  8
Layer_0
  10
481.33478
  20
693.96846
  42
0.27763414
  0
VERTEX
  5
e6
  8
Layer_0
  10
481.3905
  20
692.9389
  0
VERTEX
  5
e7
  8
Layer_0
  10
488.67224
  20
682.19643
  42
0.32943008
  0
VERTEX
  5
e8
  8
Layer_0
  10
489.79346
  20
681.80154
  42
0.32943372
  0
VERTEX
  5
e9
  8
Layer_0
  10
490.5
  20
682.75751
  0
VERTEX
  5
ea
  8
Layer_0
  10
490.5
  20
693.5
  42
0.41421356
  0
SEQEND
  0
POLYLINE
  5
ec
  8
Layer_0
  62
7
  70
1
  66
1
  10
0
  20
0
  30
0
  0
VERTEX
  5
ec
  8
Layer_0
  10
460.5
  20
693.5
  0
VERTEX
  5
ed
  8
Layer_0
  10
460.5
  20
682.75751
  42
0.3294309
  0
VERTEX
  5
ee
  8
Layer_0
  10
461.20654
  20
681.80154
  42
0.32943008
  0
VERTEX
  5
ef
  8
Layer_0
  10
462.32776
  20
682.19643
  0
VERTEX
  5
f0
  8
Layer_0
  10
469.6095
  20
692.9389
  42
0.27763414
  0
VERTEX
  5
f1
  8
Layer_0
  10
469.66522
  20
693.96846
  42
0.27763088
  0
VERTEX
  5
f2
  8
Layer_0
  10
468.78174
  20
694.5
  0
VERTEX
  5
f3
  8
Layer_0
  10
461.5
  20
694.5
  42
0.41421356
  0
SEQEND
  0
POLYLINE
  5
f5
  8
Layer_0
  62
7
  70
1
  66
1
  10
0
  20
0
  30
0
  0
VERTEX
  5
f5
  8
Layer_0
  10
419.12778
  20
652.53076
  0
VERTEX
  5
f6
  8
Layer_0
  10
429.00955
  20
651.56424
  42
-0.30334393
  0
VERTEX
  5
f7
  8
Layer_0
  10
429.86896
  20
650.85992
  42
-0.30335279
  0
VERTEX
  5
f8
  8
Layer_0
  10
429.54712
  20
649.79639
  0
VERTEX
  5
f9
  8
Layer_0
  10
418.69882
  20
640.88113
  42
-0.30334516
  0
VERTEX
  5
fa
  8
Layer_0
  10
417.59311
  20
640.77148
  42
-0.30335638
  0
VERTEX
  5
fb
  8
Layer_0
  10
417.06866
  20
641.75107
  0
VERTEX
  5
fc
  8
Layer_0
  10
418.03519
  20
651.63284
  42
-0.4142058
  0
SEQEND
  0
POLYLINE
  5
fe
  8
Layer_0
  62
7
  70
1
  66
1
  10
0
  20
0
  30
0
  0
VERTEX
  5
fe
  8
Layer_0
  10
416.91791
  20
632.94574
  0
VERTEX
  5
ff
  8
Layer_0
  10
426.73108
  20
621.00485
  42
0.30334136
  0
VERTEX
  5
100
  8
Layer_0
  10
427.79459
  20
620.68301
  42
0.30335392
  0
VERTEX
  5
101
  8
Layer_0
  10
428.4989
  20
621.54242
  0
VERTEX
  5
102
  8
Layer_0
  10
430.62665
  20
643.29648
  42
0.30335638
  0
VERTEX
  5
103
  8
Layer_0
  10
430.10217
  20
644.27606
  42
0.30334516
  0
VERTEX
  5
104
  8
Layer_0
  10
428.99646
  20
644.16641
  0
VERTEX
  5
105
  8
Layer_0
  10
417.05557
  20
634.35324
  42
0.41420915
  0
SEQEND
  0
POLYLINE
  5
107
  8
Layer_0
  62
7
  70
1
  66
1
  10
0
  20
0
  30
0
  0
VERTEX
  5
107
  8
Layer_0
  10
415.49731
  20
625.68561
  0
VERTEX
  5
108
  8
Layer_0
  10
413.36957
  20
603.93155
  42
0.30335625
  0
VERTEX
  5
109
  8
Layer_0
  10
413.89404
  20
602.95197
  42
0.30333691
  0
VERTEX
  5
10a
  8
Layer_0
  10
414.99976
  20
603.06161
  0
VERTEX
  5
10b
  8
Layer_0
  10
426.94064
  20
612.87479
  42
0.41420915
  0
VERTEX
  5
10c
  8
Layer_0
  10
427.07831
  20
614.28229
  0
VERTEX
  5
10d
  8
Layer_0
  10
417.26514
  20
626.22318
  42
0.303343
  0
VERTEX
  5
10e
  8
Layer_0
  10
416.20163
  20
626.54501
  42
0.30336171
  0
SEQEND
  0
POLYLINE
  5
110
  8
Layer_0
  62
7
  70
1
  66
1
  10
0
  20
0
  30
0
  0
VERTEX
  5
110
  8
Layer_0
  10
413.21881
  20
595.12622
  0
VERTEX
  5
111
  8
Layer_0
  10
423.03198
  20
583.18533
  42
0.30334932
  0
VERTEX
  5
112
  8
Layer_0
  10
424.09552
  20
582.86349
  42
0.30333499
  0
VERTEX
  5
113
  8
Layer_0
  10
424.7998
  20
583.7229
  0
VERTEX
  5
114
  8
Layer_0
  10
426.92755
  20
605.47696
  42
0.30335625
  0
VERTEX
  5
115
  8
Layer_0
  10
426.40314
  20
606.45654
  42
0.30333691
  0
VERTEX
  5
116
  8
Layer_0
  10
425.29739
  20
606.34686
  0
VERTEX
  5
117
  8
Layer_0
  10
413.35651
  20
596.53372
  42
0.41421412
  0
SEQEND
  0
POLYLINE
  5
119
  8
Layer_0
  62
7
  70
1
  66
1
  10
0
  20
0
  30
0
  0
VERTEX
  5
119
  8
Layer_0
  10
411.79825
  20
587.86606
  0
VERTEX
  5
11a
  8
Layer_0
  10
410.83173
  20
577.98428
  42
0.41422162
  0
VERTEX
  5
11b
  8
Layer_0
  10
411.72961
  20
576.89169
  0
VERTEX
  5
11c
  8
Layer_0
  10
421.61139
  20
575.92517
  42
0.30335837
  0
VERTEX
  5
11d
  8
Layer_0
  10
422.591
  20
576.44962
  42
0.3033524
  0
VERTEX
  5
11e
  8
Layer_0
  10
422.48132
  20
577.55533
  0
VERTEX
  5
11f
  8
Layer_0
  10
413.5661
  20
588.40363
  42
0.30334136
  0
VERTEX
  5
120
  8
Layer_0
  10
412.50256
  20
588.72546
  42
0.30336392
  0
SEQEND
  0
POLYLINE
  5
122
  8
Layer_0
  62
7
  70
1
  66
1
  10
0
  20
0
  30
0
  0
VERTEX
  5
122
  8
Layer_0
  10
401.99524
  20
477.36661
  0
VERTEX
  5
123
  8
Layer_0
  10
411.87701
  20
476.40009
  42
0.30334686
  0
VERTEX
  5
124
  8
Layer_0
  10
412.8566
  20
476.92453
  42
0.30334089
  0
VERTEX
  5
125
  8
Layer_0
  10
412.74695
  20
478.03027
  0
VERTEX
  5
126
  8
Layer_0
  10
403.83167
  20
488.87854
  42
0.30333316
  0
VERTEX
  5
127
  8
Layer_0
  10
402.76816
  20
489.20038
  42
0.30334575
  0
VERTEX
  5
128
  8
Layer_0
  10
402.06384
  20
488.341
  0
VERTEX
  5
129
  8
Layer_0
  10
401.09732
  20
478.45923
  42
0.19890926
  0
VERTEX
  5
12a
  8
Layer_0
  10
401.31998
  20
477.72693
  42
0.1989283
  0
SEQEND
  0
POLYLINE
  5
12c
  8
Layer_0
  62
7
  70
1
  66
1
  10
0
  20
0
  30
0
  0
VERTEX
  5
12c
  8
Layer_0
  10
413.29761
  20
483.66025
  0
VERTEX
  5
12d
  8
Layer_0
  10
403.48444
  20
495.60114
  42
-0.41421356
  0
VERTEX
  5
12e
  8
Layer_0
  10
403.62207
  20
497.00864
  0
VERTEX
  5
12f
  8
Layer_0
  10
415.56299
  20
506.82181
  42
-0.30334574
  0
VERTEX
  5
130
  8
Layer_0
  10
416.6687
  20
506.93146
  42
-0.30336196
  0
VERTEX
  5
131
  8
Layer_0
  10
417.19318
  20
505.95187
  0
VERTEX
  5
132
  8
Layer_0
  10
415.06543
  20
484.19781
  42
-0.30334575
  0
VERTEX
  5
133
  8
Layer_0
  10
414.36108
  20
483.33844
  42
-0.30333316
  0
SEQEND
  0
POLYLINE
  5
135
  8
Layer_0
  62
7
  70
1
  66
1
  10
0
  20
0
  30
0
  0
VERTEX
  5
135
  8
Layer_0
  10
405.26535
  20
503.53653
  0
VERTEX
  5
136
  8
Layer_0
  10
417.20624
  20
513.3497
  42
0.19892497
  0
VERTEX
  5
137
  8
Layer_0
  10
417.56659
  20
514.02493
  42
0.19892227
  0
VERTEX
  5
138
  8
Layer_0
  10
417.3439
  20
514.7572
  0
VERTEX
  5
139
  8
Layer_0
  10
407.53076
  20
526.69809
  42
0.30334302
  0
VERTEX
  5
13a
  8
Layer_0
  10
406.46722
  20
527.0199
  42
0.3033556
  0
VERTEX
  5
13b
  8
Layer_0
  10
405.76291
  20
526.16052
  0
VERTEX
  5
13c
  8
Layer_0
  10
403.63519
  20
504.40646
  42
0.30334686
  0
VERTEX
  5
13d
  8
Layer_0
  10
404.15961
  20
503.42688
  42
0.30334089
  0
SEQEND
  0
POLYLINE
  5
13f
  8
Layer_0
  62
7
  70
1
  66
1
  10
0
  20
0
  30
0
  0
VERTEX
  5
13f
  8
Layer_0
  10
416.99664
  20
521.4798
  0
VERTEX
  5
140
  8
Layer_0
  10
407.1835
  20
533.42065
  42
-0.41421356
  0
VERTEX
  5
141
  8
Layer_0
  10
407.32117
  20
534.82819
  0
VERTEX
  5
142
  8
Layer_0
  10
419.26205
  20
544.64133
  42
-0.30334543
  0
VERTEX
  5
143
  8
Layer_0
  10
420.3678
  20
544.75101
  42
-0.30335625
  0
VERTEX
  5
144
  8
Layer_0
  10
420.89221
  20
543.77142
  0
VERTEX
  5
145
  8
Layer_0
  10
418.7645
  20
522.01733
  42
-0.3033556
  0
VERTEX
  5
146
  8
Layer_0
  10
418.06018
  20
521.15796
  42
-0.30334302
  0
SEQEND
  0
POLYLINE
  5
148
  8
Layer_0
  62
7
  70
1
  66
1
  10
0
  20
0
  30
0
  0
VERTEX
  5
148
  8
Layer_0
  10
408.96442
  20
541.35608
  0
VERTEX
  5
149
  8
Layer_0
  10
419.81274
  20
550.2713
  42
0.30335204
  0
VERTEX
  5
14a
  8
Layer_0
  10
420.13455
  20
551.33484
  42
0.30334724
  0
VERTEX
  5
14b
  8
Layer_0
  10
419.27515
  20
552.03915
  0
VERTEX
  5
14c
  8
Layer_0
  10
409.39337
  20
553.00568
  42
0.4142059
  0
VERTEX
  5
14d
  8
Layer_0
  10
408.30078
  20
552.10776
  0
VERTEX
  5
14e
  8
Layer_0
  10
407.33426
  20
542.22601
  42
0.3033457
  0
VERTEX
  5
14f
  8
Layer_0
  10
407.8587
  20
541.2464
  42
0.30335482
  0
SEQEND
  0
POLYLINE
  5
151
  8
Layer_0
  62
7
  70
1
  66
1
  10
0
  20
0
  30
0
  0
VERTEX
  5
151
  8
Layer_0
  10
639.67224
  20
693.27884
  0
VERTEX
  5
152
  8
Layer_0
  10
631.3905
  20
681.0611
  42
0.27763215
  0
VERTEX
  5
153
  8
Layer_0
  10
631.33478
  20
680.03154
  42
0.27763109
  0
VERTEX
  5
154
  8
Layer_0
  10
632.21826
  20
679.5
  0
VERTEX
  5
155
  8
Layer_0
  10
648.78174
  20
679.5
  42
0.27763264
  0
VERTEX
  5
156
  8
Layer_0
  10
649.66522
  20
680.03154
  42
0.27762971
  0
VERTEX
  5
157
  8
Layer_0
  10
649.6095
  20
681.0611
  0
VERTEX
  5
158
  8
Layer_0
  10
641.32776
  20
693.27884
  42
0.24871941
  0
VERTEX
  5
159
  8
Layer_0
  10
640.5
  20
693.71776
  42
0.24872067
  0
SEQEND
  0
POLYLINE
  5
15b
  8
Layer_0
  62
7
  70
1
  66
1
  10
0
  20
0
  30
0
  0
VERTEX
  5
15b
  8
Layer_0
  10
625.5
  20
682.75751
  0
VERTEX
  5
15c
  8
Layer_0
  10
625.5
  20
693.5
  42
-0.41421356
  0
VERTEX
  5
15d
  8
Layer_0
  10
626.5
  20
694.5
  0
VERTEX
  5
15e
  8
Layer_0
  10
633.78174
  20
694.5
  42
-0.27763211
  0
VERTEX
  5
15f
  8
Layer_0
  10
634.66522
  20
693.96846
  42
-0.27763254
  0
VERTEX
  5
160
  8
Layer_0
  10
634.6095
  20
692.9389
  0
VERTEX
  5
161
  8
Layer_0
  10
627.32776
  20
682.19643
  42
-0.3294335
  0
VERTEX
  5
162
  8
Layer_0
  10
626.20654
  20
681.80154
  42
-0.32943337
  0
SEQEND
  0
POLYLINE
  5
164
  8
Layer_0
  62
7
  70
1
  66
1
  10
0
  20
0
  30
0
  0
VERTEX
  5
164
  8
Layer_0
  10
646.3905
  20
692.9389
  0
VERTEX
  5
165
  8
Layer_0
  10
653.67224
  20
682.19643
  42
0.32943335
  0
VERTEX
  5
166
  8
Layer_0
  10
654.79346
  20
681.80154
  42
0.3294343
  0
VERTEX
  5
167
  8
Layer_0
  10
655.5
  20
682.75751
  0
VERTEX
  5
168
  8
Layer_0
  10
655.5
  20
693.5
  42
0.41421356
  0
VERTEX
  5
169
  8
Layer_0
  10
654.5
  20
694.5
  0
VERTEX
  5
16a
  8
Layer_0
  10
647.21826
  20
694.5
  42
0.27763269
  0
VERTEX
  5
16b
  8
Layer_0
  10
646.33478
  20
693.96846
  42
0.27762939
  0
SEQEND
  0
POLYLINE
  5
16d
  8
Layer_0
  62
7
  70
1
  66
1
  10
0
  20
0
  30
0
  0
VERTEX
  5
16d
  8
Layer_0
  10
680.5
  20
682.75751
  0
VERTEX
  5
16e
  8
Layer_0
  10
680.5
  20
693.5
  42
-0.41421356
  0
VERTEX
  5
16f
  8
Layer_0
  10
681.5
  20
694.5
  0
VERTEX
  5
170
  8
Layer_0
  10
688.78174
  20
694.5
  42
-0.27763088
  0
VERTEX
  5
171
  8
Layer_0
  10
689.66522
  20
693.96846
  42
-0.27763414
  0
VERTEX
  5
172
  8
Layer_0
  10
689.6095
  20
692.9389
  0
VERTEX
  5
173
  8
Layer_0
  10
682.32776
  20
682.19643
  42
-0.32943008
  0
VERTEX
  5
174
  8
Layer_0
  10
681.20654
  20
681.80154
  42
-0.32943372
  0
SEQEND
  0
POLYLINE
  5
176
  8
Layer_0
  62
7
  70
1
  66
1
  10
0
  20
0
  30
0
  0
VERTEX
  5
176
  8
Layer_0
  10
686.3905
  20
681.0611
  0
VERTEX
  5
177
  8
Layer_0
  10
694.67224
  20
693.27884
  42
-0.24872026
  0
VERTEX
  5
178
  8
Layer_0
  10
695.5
  20
693.71776
  42
-0.24872026
  0
VERTEX
  5
179
  8
Layer_0
  10
696.32776
  20
693.27884
  0
VERTEX
  5
17a
  8
Layer_0
  10
704.6095
  20
681.0611
  42
-0.27763446
  0
VERTEX
  5
17b
  8
Layer_0
  10
704.66522
  20
680.03154
  42
-0.27763088
  0
VERTEX
  5
17c
  8
Layer_0
  10
703.78174
  20
679.5
  0
VERTEX
  5
17d
  8
Layer_0
  10
687.21826
  20
679.5
  42
-0.27763088
  0
VERTEX
  5
17e
  8
Layer_0
  10
686.33478
  20
680.03154
  42
-0.27763485
  0
SEQEND
  0
POLYLINE
  5
180
  8
Layer_0
  62
7
  70
1
  66
1
  10
0
  20
0
  30
0
  0
VERTEX
  5
180
  8
Layer_0
  10
701.3905
  20
692.9389
  0
VERTEX
  5
181
  8
Layer_0
  10
708.67224
  20
682.19643
  42
0.32943008
  0
VERTEX
  5
182
  8
Layer_0
  10
709.79346
  20
681.80154
  42
0.32943372
  0
VERTEX
  5
183
  8
Layer_0
  10
710.5
  20
682.75751
  0
VERTEX
  5
184
  8
Layer_0
  10
710.5
  20
693.5
  42
0.41421356
  0
VERTEX
  5
185
  8
Layer_0
  10
709.5
  20
694.5
  0
VERTEX
  5
186
  8
Layer_0
  10
702.21826
  20
694.5
  42
0.27763088
  0
VERTEX
  5
187
  8
Layer_0
  10
701.33478
  20
693.96846
  42
0.27763414
  0
SEQEND
  0
POLYLINE
  5
189
  8
Layer_0
  62
7
  70
1
  66
1
  10
0
  20
0
  30
0
  0
VERTEX
  5
189
  8
Layer_0
  10
735.5
  20
682.75751
  0
VERTEX
  5
18a
  8
Layer_0
  10
735.5
  20
693.5
  42
-0.41421356
  0
VERTEX
  5
18b
  8
Layer_0
  10
736.5
  20
694.5
  0
VERTEX
  5
18c
  8
Layer_0
  10
743.78174
  20
694.5
  42
-0.27763088
  0
VERTEX
  5
18d
  8
Layer_0
  10
744.66522
  20
693.96846
  42
-0.27763414
  0
VERTEX
  5
18e
  8
Layer_0
  10
744.6095
  20
692.9389
  0
VERTEX
  5
18f
  8
Layer_0
  10
737.32776
  20
682.19643
  42
-0.32943008
  0
VERTEX
  5
190
  8
Layer_0
  10
736.20654
  20
681.80154
  42
-0.32943372
  0
SEQEND
  0
POLYLINE
  5
192
  8
Layer_0
  62
7
  70
1
  66
1
  10
0
  20
0
  30
0
  0
VERTEX
  5
192
  8
Layer_0
  10
741.3905
  20
681.0611
  0
VERTEX
  5
193
  8
Layer_0
  10
749.67224
  20
693.27884
  42
-0.24872532
  0
VERTEX
  5
194
  8
Layer_0
  10
750.5
  20
693.71776
  42
-0.24872532
  0
VERTEX
  5
195
  8
Layer_0
  10
751.32776
  20
693.27884
  0
VERTEX
  5
196
  8
Layer_0
  10
759.6095
  20
681.0611
  42
-0.27763446
  0
VERTEX
  5
197
  8
Layer_0
  10
759.66522
  20
680.03154
  42
-0.27763088
  0
VERTEX
  5
198
  8
Layer_0
  10
758.78174
  20
679.5
  0
VERTEX
  5
199
  8
Layer_0
  10
742.21826
  20
679.5
  42
-0.27763088
  0
VERTEX
  5
19a
  8
Layer_0
  10
741.33478
  20
680.03154
  42
-0.27763485
  0
SEQEND
  0
POLYLINE
  5
19c
  8
Layer_0
  62
7
  70
1
  66
1
  10
0
  20
0
  30
0
  0
VERTEX
  5
19c
  8
Layer_0
  10
756.3905
  20
692.9389
  0
VERTEX
  5
19d
  8
Layer_0
  10
763.67224
  20
682.19643
  42
0.32943008
  0
VERTEX
  5
19e
  8
Layer_0
  10
764.79346
  20
681.80154
  42
0.3294309
  0
VERTEX
  5
19f
  8
Layer_0
  10
765.5
  20
682.75751
  0
VERTEX
  5
1a0
  8
Layer_0
  10
765.5
  20
693.5
  42
0.41421356
  0
VERTEX
  5
1a1
  8
Layer_0
  10
764.5
  20
694.5
  0
VERTEX
  5
1a2
  8
Layer_0
  10
757.21826
  20
694.5
  42
0.27763088
  0
VERTEX
  5
1a3
  8
Layer_0
  10
756.33478
  20
693.96846
  42
0.27763414
  0
SEQEND
  0
POLYLINE
  5
1a5
  8
Layer_0
  62
7
  70
1
  66
1
  10
0
  20
0
  30
0
  0
VERTEX
  5
1a5
  8
Layer_0
  10
796.45288
  20
649.79639
  0
VERTEX
  5
1a6
  8
Layer_0
  10
807.30115
  20
640.88113
  42
0.30334516
  0
VERTEX
  5
1a7
  8
Layer_0
  10
808.40686
  20
640.77148
  42
0.30335638
  0
VERTEX
  5
1a8
  8
Layer_0
  10
808.93134
  20
641.75107
  0
VERTEX
  5
1a9
  8
Layer_0
  10
807.96484
  20
651.63284
  42
0.4142058
  0
VERTEX
  5
1aa
  8
Layer_0
  10
806.87219
  20
652.53076
  0
VERTEX
  5
1ab
  8
Layer_0
  10
796.99048
  20
651.56424
  42
0.30334393
  0
VERTEX
  5
1ac
  8
Layer_0
  10
796.13104
  20
650.85992
  42
0.30335279
  0
SEQEND
  0
POLYLINE
  5
1ae
  8
Layer_0
  62
7
  70
1
  66
1
  10
0
  20
0
  30
0
  0
VERTEX
  5
1ae
  8
Layer_0
  10
797.00354
  20
644.16641
  0
VERTEX
  5
1af
  8
Layer_0
  10
808.94446
  20
634.35324
  42
-0.41420915
  0
VERTEX
  5
1b0
  8
Layer_0
  10
809.08209
  20
632.94574
  0
VERTEX
  5
1b1
  8
Layer_0
  10
799.26892
  20
621.00485
  42
-0.30334136
  0
VERTEX
  5
1b2
  8
Layer_0
  10
798.20544
  20
620.68301
  42
-0.30335392
  0
VERTEX
  5
1b3
  8
Layer_0
  10
797.5011
  20
621.54242
  0
VERTEX
  5
1b4
  8
Layer_0
  10
795.37335
  20
643.29648
  42
-0.30335638
  0
VERTEX
  5
1b5
  8
Layer_0
  10
795.89783
  20
644.27606
  42
-0.30334516
  0
SEQEND
  0
POLYLINE
  5
1b7
  8
Layer_0
  62
7
  70
1
  66
1
  10
0
  20
0
  30
0
  0
VERTEX
  5
1b7
  8
Layer_0
  10
800.70264
  20
606.34686
  0
VERTEX
  5
1b8
  8
Layer_0
  10
812.64349
  20
596.53372
  42
-0.41421412
  0
VERTEX
  5
1b9
  8
Layer_0
  10
812.78119
  20
595.12622
  0
VERTEX
  5
1ba
  8
Layer_0
  10
802.96802
  20
583.18533
  42
-0.30334932
  0
VERTEX
  5
1bb
  8
Layer_0
  10
801.90448
  20
582.86349
  42
-0.30333499
  0
VERTEX
  5
1bc
  8
Layer_0
  10
801.2002
  20
583.7229
  0
VERTEX
  5
1bd
  8
Layer_0
  10
799.07245
  20
605.47696
  42
-0.30335625
  0
VERTEX
  5
1be
  8
Layer_0
  10
799.59686
  20
606.45654
  42
-0.30333691
  0
SEQEND
  0
POLYLINE
  5
1c0
  8
Layer_0
  62
7
  70
1
  66
1
  10
0
  20
0
  30
0
  0
VERTEX
  5
1c0
  8
Layer_0
  10
812.4339
  20
588.40363
  0
VERTEX
  5
1c1
  8
Layer_0
  10
803.51868
  20
577.55533
  42
0.3033524
  0
VERTEX
  5
1c2
  8
Layer_0
  10
803.409
  20
576.44962
  42
0.30335837
  0
VERTEX
  5
1c3
  8
Layer_0
  10
804.38861
  20
575.92517
  0
VERTEX
  5
1c4
  8
Layer_0
  10
814.27039
  20
576.89169
  42
0.41422162
  0
VERTEX
  5
1c5
  8
Layer_0
  10
815.16827
  20
577.98428
  0
VERTEX
  5
1c6
  8
Layer_0
  10
814.20178
  20
587.86606
  42
0.30334575
  0
VERTEX
  5
1c7
  8
Layer_0
  10
813.49744
  20
588.72546
  42
0.30334959
  0
SEQEND
  0
POLYLINE
  5
1c9
  8
Layer_0
  62
7
  70
1
  66
1
  10
0
  20
0
  30
0
  0
VERTEX
  5
1c9
  8
Layer_0
  10
808.73486
  20
626.22318
  0
VERTEX
  5
1ca
  8
Layer_0
  10
798.92169
  20
614.28229
  42
0.41420915
  0
VERTEX
  5
1cb
  8
Layer_0
  10
799.05933
  20
612.87479
  0
VERTEX
  5
1cc
  8
Layer_0
  10
811.00024
  20
603.06161
  42
0.30333293
  0
VERTEX
  5
1cd
  8
Layer_0
  10
812.10596
  20
602.95197
  42
0.30335625
  0
VERTEX
  5
1ce
  8
Layer_0
  10
812.63043
  20
603.93155
  0
VERTEX
  5
1cf
  8
Layer_0
  10
810.50269
  20
625.68561
  42
0.30335067
  0
VERTEX
  5
1d0
  8
Layer_0
  10
809.79834
  20
626.54498
  42
0.3033441
  0
SEQEND
  0
POLYLINE
  5
1d2
  8
Layer_0
  62
7
  70
1
  66
1
  10
0
  20
0
  30
0
  0
VERTEX
  5
1d2
  8
Layer_0
  10
806.72485
  20
552.03915
  0
VERTEX
  5
1d3
  8
Layer_0
  10
816.60663
  20
553.00568
  42
-0.4142059
  0
VERTEX
  5
1d4
  8
Layer_0
  10
817.69922
  20
552.10776
  0
VERTEX
  5
1d5
  8
Layer_0
  10
818.66577
  20
542.22601
  42
-0.30333661
  0
VERTEX
  5
1d6
  8
Layer_0
  10
818.1413
  20
541.2464
  42
-0.30335482
  0
VERTEX
  5
1d7
  8
Layer_0
  10
817.03558
  20
541.35608
  0
VERTEX
  5
1d8
  8
Layer_0
  10
806.18726
  20
550.2713
  42
-0.30335204
  0
VERTEX
  5
1d9
  8
Layer_0
  10
805.86548
  20
551.33484
  42
-0.30334724
  0
SEQEND
  0
POLYLINE
  5
1db
  8
Layer_0
  62
7
  70
1
  66
1
  10
0
  20
0
  30
0
  0
VERTEX
  5
1db
  8
Layer_0
  10
806.73792
  20
544.64133
  0
VERTEX
  5
1dc
  8
Layer_0
  10
818.67883
  20
534.82819
  42
-0.41421356
  0
VERTEX
  5
1dd
  8
Layer_0
  10
818.81653
  20
533.42065
  0
VERTEX
  5
1de
  8
Layer_0
  10
809.00336
  20
521.4798
  42
-0.30334302
  0
VERTEX
  5
1df
  8
Layer_0
  10
807.93982
  20
521.15796
  42
-0.3033556
  0
VERTEX
  5
1e0
  8
Layer_0
  10
807.23547
  20
522.01733
  0
VERTEX
  5
1e1
  8
Layer_0
  10
805.10779
  20
543.77142
  42
-0.303346
  0
VERTEX
  5
1e2
  8
Layer_0
  10
805.6322
  20
544.75101
  42
-0.30335028
  0
SEQEND
  0
POLYLINE
  5
1e4
  8
Layer_0
  62
7
  70
1
  66
1
  10
0
  20
0
  30
0
  0
VERTEX
  5
1e4
  8
Layer_0
  10
818.46924
  20
526.69809
  0
VERTEX
  5
1e5
  8
Layer_0
  10
808.65613
  20
514.7572
  42
0.41421356
  0
VERTEX
  5
1e6
  8
Layer_0
  10
808.79376
  20
513.3497
  0
VERTEX
  5
1e7
  8
Layer_0
  10
820.73462
  20
503.53653
  42
0.30334574
  0
VERTEX
  5
1e8
  8
Layer_0
  10
821.84039
  20
503.42688
  42
0.30336196
  0
VERTEX
  5
1e9
  8
Layer_0
  10
822.36481
  20
504.40646
  0
VERTEX
  5
1ea
  8
Layer_0
  10
820.23706
  20
526.16052
  42
0.3033556
  0
VERTEX
  5
1eb
  8
Layer_0
  10
819.53278
  20
527.0199
  42
0.30334302
  0
SEQEND
  0
POLYLINE
  5
1ed
  8
Layer_0
  62
7
  70
1
  66
1
  10
0
  20
0
  30
0
  0
VERTEX
  5
1ed
  8
Layer_0
  10
810.43701
  20
506.82181
  0
VERTEX
  5
1ee
  8
Layer_0
  10
822.37793
  20
497.00864
  42
-0.41421356
  0
VERTEX
  5
1ef
  8
Layer_0
  10
822.51556
  20
495.60114
  0
VERTEX
  5
1f0
  8
Layer_0
  10
812.70239
  20
483.66025
  42
-0.30333316
  0
VERTEX
  5
1f1
  8
Layer_0
  10
811.63892
  20
483.33844
  42
-0.30334575
  0
VERTEX
  5
1f2
  8
Layer_0
  10
810.93457
  20
484.19781
  0
VERTEX
  5
1f3
  8
Layer_0
  10
808.80682
  20
505.95187
  42
-0.30334686
  0
VERTEX
  5
1f4
  8
Layer_0
  10
809.3313
  20
506.93146
  42
-0.30334089
  0
SEQEND
  0
POLYLINE
  5
1f6
  8
Layer_0
  62
7
  70
1
  66
1
  10
0
  20
0
  30
0
  0
VERTEX
  5
1f6
  8
Layer_0
  10
814.12299
  20
476.40009
  0
VERTEX
  5
1f7
  8
Layer_0
  10
824.00476
  20
477.36661
  42
0.19891342
  0
VERTEX
  5
1f8
  8
Layer_0
  10
824.68005
  20
477.72693
  42
0.1989262
  0
VERTEX
  5
1f9
  8
Layer_0
  10
824.90271
  20
478.45923
  0
VERTEX
  5
1fa
  8
Layer_0
  10
823.93616
  20
488.341
  42
0.30334575
  0
VERTEX
  5
1fb
  8
Layer_0
  10
823.23181
  20
489.20038
  42
0.30333316
  0
VERTEX
  5
1fc
  8
Layer_0
  10
822.16833
  20
488.87854
  0
VERTEX
  5
1fd
  8
Layer_0
  10
813.25305
  20
478.03027
  42
0.30335227
  0
VERTEX
  5
1fe
  8
Layer_0
  10
813.14343
  20
476.92456
  42
0.30332636
  0
SEQEND
  0
POLYLINE
  5
200
  8
Layer_0
  62
7
  70
1
  66
1
  10
0
  20
0
  30
0
  0
VERTEX
  5
200
  8
Layer_0
  10
610.5
  20
682
  0
VERTEX
  5
201
  8
Layer_0
  10
615.5
  20
682
  0
VERTEX
  5
202
  8
Layer_0
  10
615.5
  20
679.5
  0
VERTEX
  5
203
  8
Layer_0
  10
610.5
  20
679.5
  0
SEQEND
  0
POLYLINE
  5
205
  8
Layer_0
  62
7
  70
1
  66
1
  10
0
  20
0
  30
0
  0
VERTEX
  5
205
  8
Layer_0
  10
610.5
  20
694.5
  0
VERTEX
  5
206
  8
Layer_0
  10
615.5
  20
694.5
  0
VERTEX
  5
207
  8
Layer_0
  10
615.5
  20
692
  0
VERTEX
  5
208
  8
Layer_0
  10
610.5
  20
692
  0
SEQEND
  0
POLYLINE
  5
20a
  8
Layer_0
  62
7
  70
1
  66
1
  10
0
  20
0
  30
0
  0
VERTEX
  5
20a
  8
Layer_0
  10
560.5
  20
682
  0
VERTEX
  5
20b
  8
Layer_0
  10
555.5
  20
682
  0
VERTEX
  5
20c
  8
Layer_0
  10
555.5
  20
679.5
  0
VERTEX
  5
20d
  8
Layer_0
  10
560.5
  20
679.5
  0
SEQEND
  0
POLYLINE
  5
20f
  8
Layer_0
  62
7
  70
1
  66
1
  10
0
  20
0
  30
0
  0
VERTEX
  5
20f
  8
Layer_0
  10
560.5
  20
692
  0
VERTEX
  5
210
  8
Layer_0
  10
560.5
  20
694.5
  0
VERTEX
  5
211
  8
Layer_0
  10
555.5
  20
694.5
  0
VERTEX
  5
212
  8
Layer_0
  10
555.5
  20
692
  0
SEQEND
  0
POLYLINE
  5
214
  8
Layer_0
  62
7
  70
1
  66
1
  10
0
  20
0
  30
0
  0
VERTEX
  5
214
  8
Layer_0
  10
505.5
  20
682
  0
VERTEX
  5
215
  8
Layer_0
  10
500.5
  20
682
  0
VERTEX
  5
216
  8
Layer_0
  10
500.5
  20
679.5
  0
VERTEX
  5
217
  8
Layer_0
  10
505.5
  20
679.5
  0
SEQEND
  0
POLYLINE
  5
219
  8
Layer_0
  62
7
  70
1
  66
1
  10
0
  20
0
  30
0
  0
VERTEX
  5
219
  8
Layer_0
  10
505.5
  20
692
  0
VERTEX
  5
21a
  8
Layer_0
  10
505.5
  20
694.5
  0
VERTEX
  5
21b
  8
Layer_0
  10
500.5
  20
694.5
  0
VERTEX
  5
21c
  8
Layer_0
  10
500.5
  20
692
  0
SEQEND
  0
POLYLINE
  5
21e
  8
Layer_0
  62
7
  70
1
  66
1
  10
0
  20
0
  30
0
  0
VERTEX
  5
21e
  8
Layer_0
  10
450.5
  20
682
  0
VERTEX
  5
21f
  8
Layer_0
  10
445.5
  20
682
  0
VERTEX
  5
220
  8
Layer_0
  10
445.5
  20
679.5
  0
VERTEX
  5
221
  8
Layer_0
  10
450.5
  20
679.5
  0
SEQEND
  0
POLYLINE
  5
223
  8
Layer_0
  62
7
  70
1
  66
1
  10
0
  20
0
  30
0
  0
VERTEX
  5
223
  8
Layer_0
  10
450.5
  20
692
  0
VERTEX
  5
224
  8
Layer_0
  10
450.5
  20
694.5
  0
VERTEX
  5
225
  8
Layer_0
  10
445.5
  20
694.5
  0
VERTEX
  5
226
  8
Layer_0
  10
445.5
  20
692
  0
SEQEND
  0
POLYLINE
  5
228
  8
Layer_0
  62
7
  70
1
  66
1
  10
0
  20
0
  30
0
  0
VERTEX
  5
228
  8
Layer_0
  10
665.5
  20
694.5
  0
VERTEX
  5
229
  8
Layer_0
  10
670.5
  20
694.5
  0
VERTEX
  5
22a
  8
Layer_0
  10
670.5
  20
692
  0
VERTEX
  5
22b
  8
Layer_0
  10
665.5
  20
692
  0
SEQEND
  0
POLYLINE
  5
22d
  8
Layer_0
  62
7
  70
1
  66
1
  10
0
  20
0
  30
0
  0
VERTEX
  5
22d
  8
Layer_0
  10
670.5
  20
682
  0
VERTEX
  5
22e
  8
Layer_0
  10
665.5
  20
682
  0
VERTEX
  5
22f
  8
Layer_0
  10
665.5
  20
679.5
  0
VERTEX
  5
230
  8
Layer_0
  10
670.5
  20
679.5
  0
SEQEND
  0
POLYLINE
  5
232
  8
Layer_0
  62
7
  70
1
  66
1
  10
0
  20
0
  30
0
  0
VERTEX
  5
232
  8
Layer_0
  10
720.5
  20
694.5
  0
VERTEX
  5
233
  8
Layer_0
  10
725.5
  20
694.5
  0
VERTEX
  5
234
  8
Layer_0
  10
725.5
  20
692
  0
VERTEX
  5
235
  8
Layer_0
  10
720.5
  20
692
  0
SEQEND
  0
POLYLINE
  5
237
  8
Layer_0
  62
7
  70
1
  66
1
  10
0
  20
0
  30
0
  0
VERTEX
  5
237
  8
Layer_0
  10
725.5
  20
682
  0
VERTEX
  5
238
  8
Layer_0
  10
720.5
  20
682
  0
VERTEX
  5
239
  8
Layer_0
  10
720.5
  20
679.5
  0
VERTEX
  5
23a
  8
Layer_0
  10
725.5
  20
679.5
  0
SEQEND
  0
POLYLINE
  5
23c
  8
Layer_0
  62
7
  70
1
  66
1
  10
0
  20
0
  30
0
  0
VERTEX
  5
23c
  8
Layer_0
  10
775.5
  20
694.5
  0
VERTEX
  5
23d
  8
Layer_0
  10
780.5
  20
694.5
  0
VERTEX
  5
23e
  8
Layer_0
  10
780.5
  20
692
  0
VERTEX
  5
23f
  8
Layer_0
  10
775.5
  20
692
  0
SEQEND
  0
POLYLINE
  5
241
  8
Layer_0
  62
7
  70
1
  66
1
  10
0
  20
0
  30
0
  0
VERTEX
  5
241
  8
Layer_0
  10
780.5
  20
682
  0
VERTEX
  5
242
  8
Layer_0
  10
775.5
  20
682
  0
VERTEX
  5
243
  8
Layer_0
  10
775.5
  20
679.5
  0
VERTEX
  5
244
  8
Layer_0
  10
780.5
  20
679.5
  0
SEQEND
  0
POLYLINE
  5
246
  8
Layer_0
  62
7
  70
1
  66
1
  10
0
  20
0
  30
0
  0
VERTEX
  5
246
  8
Layer_0
  10
418.01578
  20
667.20871
  0
VERTEX
  5
247
  8
Layer_0
  10
420.50391
  20
666.96535
  0
VERTEX
  5
248
  8
Layer_0
  10
420.01718
  20
661.98911
  0
VERTEX
  5
249
  8
Layer_0
  10
417.52905
  20
662.23245
  0
SEQEND
  0
POLYLINE
  5
24b
  8
Layer_0
  62
7
  70
1
  66
1
  10
0
  20
0
  30
0
  0
VERTEX
  5
24b
  8
Layer_0
  10
430.45642
  20
665.99191
  0
VERTEX
  5
24c
  8
Layer_0
  10
432.94452
  20
665.74855
  0
VERTEX
  5
24d
  8
Layer_0
  10
432.45782
  20
660.77231
  0
VERTEX
  5
24e
  8
Layer_0
  10
429.9697
  20
661.01566
  0
SEQEND
  0
POLYLINE
  5
250
  8
Layer_0
  62
7
  70
1
  66
1
  10
0
  20
0
  30
0
  0
VERTEX
  5
250
  8
Layer_0
  10
407.79465
  20
562.70737
  0
VERTEX
  5
251
  8
Layer_0
  10
410.28278
  20
562.46402
  0
VERTEX
  5
252
  8
Layer_0
  10
410.7695
  20
567.44028
  0
VERTEX
  5
253
  8
Layer_0
  10
408.28137
  20
567.68362
  0
SEQEND
  0
POLYLINE
  5
255
  8
Layer_0
  62
7
  70
1
  66
1
  10
0
  20
0
  30
0
  0
VERTEX
  5
255
  8
Layer_0
  10
420.23529
  20
561.49057
  0
VERTEX
  5
256
  8
Layer_0
  10
422.72339
  20
561.24722
  0
VERTEX
  5
257
  8
Layer_0
  10
423.21014
  20
566.22348
  0
VERTEX
  5
258
  8
Layer_0
  10
420.72198
  20
566.46683
  0
SEQEND
  0
POLYLINE
  5
25a
  8
Layer_0
  62
7
  70
1
  66
1
  10
0
  20
0
  30
0
  0
VERTEX
  5
25a
  8
Layer_0
  10
398.06024
  20
463.18231
  0
VERTEX
  5
25b
  8
Layer_0
  10
400.54837
  20
462.93893
  0
VERTEX
  5
25c
  8
Layer_0
  10
401.0351
  20
467.91519
  0
VERTEX
  5
25d
  8
Layer_0
  10
398.54697
  20
468.15857
  0
SEQEND
  0
POLYLINE
  5
25f
  8
Layer_0
  62
7
  70
1
  66
1
  10
0
  20
0
  30
0
  0
VERTEX
  5
25f
  8
Layer_0
  10
410.50089
  20
461.96552
  0
VERTEX
  5
260
  8
Layer_0
  10
412.98901
  20
461.72214
  0
VERTEX
  5
261
  8
Layer_0
  10
413.47571
  20
466.69839
  0
VERTEX
  5
262
  8
Layer_0
  10
410.98761
  20
466.94177
  0
SEQEND
  0
POLYLINE
  5
264
  8
Layer_0
  62
7
  70
1
  66
1
  10
0
  20
0
  30
0
  0
VERTEX
  5
264
  8
Layer_0
  10
805.49609
  20
666.96535
  0
VERTEX
  5
265
  8
Layer_0
  10
807.98425
  20
667.20871
  0
VERTEX
  5
266
  8
Layer_0
  10
808.47095
  20
662.23245
  0
VERTEX
  5
267
  8
Layer_0
  10
805.98279
  20
661.98911
  0
SEQEND
  0
POLYLINE
  5
269
  8
Layer_0
  62
7
  70
1
  66
1
  10
0
  20
0
  30
0
  0
VERTEX
  5
269
  8
Layer_0
  10
795.54358
  20
665.99191
  0
VERTEX
  5
26a
  8
Layer_0
  10
793.05548
  20
665.74855
  0
VERTEX
  5
26b
  8
Layer_0
  10
793.54218
  20
660.77231
  0
VERTEX
  5
26c
  8
Layer_0
  10
796.03027
  20
661.01566
  0
SEQEND
  0
POLYLINE
  5
26e
  8
Layer_0
  62
7
  70
1
  66
1
  10
0
  20
0
  30
0
  0
VERTEX
  5
26e
  8
Layer_0
  10
817.71863
  20
567.68362
  0
VERTEX
  5
26f
  8
Layer_0
  10
815.23047
  20
567.44028
  0
VERTEX
  5
270
  8
Layer_0
  10
815.71722
  20
562.46402
  0
VERTEX
  5
271
  8
Layer_0
  10
818.20532
  20
562.70737
  0
SEQEND
  0
POLYLINE
  5
273
  8
Layer_0
  62
7
  70
1
  66
1
  10
0
  20
0
  30
0
  0
VERTEX
  5
273
  8
Layer_0
  10
805.76471
  20
561.49057
  0
VERTEX
  5
274
  8
Layer_0
  10
803.27661
  20
561.24722
  0
VERTEX
  5
275
  8
Layer_0
  10
802.78986
  20
566.22348
  0
VERTEX
  5
276
  8
Layer_0
  10
805.27802
  20
566.46683
  0
SEQEND
  0
POLYLINE
  5
278
  8
Layer_0
  62
7
  70
1
  66
1
  10
0
  20
0
  30
0
  0
VERTEX
  5
278
  8
Layer_0
  10
813.01099
  20
461.72214
  0
VERTEX
  5
279
  8
Layer_0
  10
812.52429
  20
466.69839
  0
VERTEX
  5
27a
  8
Layer_0
  10
815.01239
  20
466.94177
  0
VERTEX
  5
27b
  8
Layer_0
  10
815.49915
  20
461.96552
  0
SEQEND
  0
POLYLINE
  5
27d
  8
Layer_0
  62
7
  70
1
  66
1
  10
0
  20
0
  30
0
  0
VERTEX
  5
27d
  8
Layer_0
  10
827.453
  20
468.15857
  0
VERTEX
  5
27e
  8
Layer_0
  10
824.9649
  20
467.91519
  0
VERTEX
  5
27f
  8
Layer_0
  10
825.45166
  20
462.93893
  0
VERTEX
  5
280
  8
Layer_0
  10
827.93976
  20
463.18231
  0
SEQEND
  0
POLYLINE
  5
282
  8
Layer_0
  62
7
  70
1
  66
1
  10
0
  20
0
  30
0
  0
VERTEX
  5
282
  8
Layer_0
  10
613
  20
702
  0
VERTEX
  5
283
  8
Layer_0
  10
422.95251
  20
702
  42
0.38593681
  0
VERTEX
  5
284
  8
Layer_0
  10
413
  20
692.97343
  0
VERTEX
  5
285
  8
Layer_0
  10
385
  20
406.70001
  0
VERTEX
  5
286
  8
Layer_0
  10
385
  20
372
  0
VERTEX
  5
287
  8
Layer_0
  10
389
  20
372
  0
VERTEX
  5
288
  8
Layer_0
  10
389
  20
387
  0
VERTEX
  5
289
  8
Layer_0
  10
392
  20
387
  0
VERTEX
  5
28a
  8
Layer_0
  10
392
  20
372
  0
VERTEX
  5
28b
  8
Layer_0
  10
443
  20
372
  0
VERTEX
  5
28c
  8
Layer_0
  10
443
  20
662
  42
-0.41421356
  0
VERTEX
  5
28d
  8
Layer_0
  10
453
  20
672
  0
VERTEX
  5
28e
  8
Layer_0
  10
613
  20
672
  0
VERTEX
  5
28f
  8
Layer_0
  10
773
  20
672
  42
-0.41421356
  0
VERTEX
  5
290
  8
Layer_0
  10
783
  20
662
  0
VERTEX
  5
291
  8
Layer_0
  10
783
  20
372
  0
VERTEX
  5
292
  8
Layer_0
  10
834
  20
372
  0
VERTEX
  5
293
  8
Layer_0
  10
834
  20
387
  0
VERTEX
  5
294
  8
Layer_0
  10
837
  20
387
  0
VERTEX
  5
295
  8
Layer_0
  10
837
  20
372
  0
VERTEX
  5
296
  8
Layer_0
  10
841
  20
372
  0
VERTEX
  5
297
  8
Layer_0
  10
841
  20
406.70001
  0
VERTEX
  5
298
  8
Layer_0
  10
813
  20
692.97343
  42
0.38593693
  0
VERTEX
  5
299
  8
Layer_0
  10
803.04749
  20
702
  0
SEQEND
  0
POLYLINE
  5
29b
  8
Layer_0
  62
7
  66
1
  10
0
  20
0
  30
0
  0
VERTEX
  5
29b
  8
Layer_0
  10
570.5
  20
682.75751
  0
VERTEX
  5
29c
  8
Layer_0
  10
570.5
  20
693.5
  42
-0.41421356
  0
VERTEX
  5
29d
  8
Layer_0
  10
571.5
  20
694.5
  0
VERTEX
  5
29e
  8
Layer_0
  10
578.78174
  20
694.5
  42
-0.27763269
  0
VERTEX
  5
29f
  8
Layer_0
  10
579.66522
  20
693.96846
  42
-0.27762939
  0
VERTEX
  5
2a0
  8
Layer_0
  10
579.6095
  20
692.9389
  0
VERTEX
  5
2a1
  8
Layer_0
  10
572.32776
  20
682.19643
  0
SEQEND
  0
POLYLINE
  5
2a3
  8
Layer_0
  62
7
  66
1
  10
0
  20
0
  30
0
  0
VERTEX
  5
2a3
  8
Layer_0
  10
410.28278
  20
562.46402
  0
VERTEX
  5
2a4
  8
Layer_0
  10
407.79465
  20
562.70737
  0
VERTEX
  5
2a5
  8
Layer_0
  10
408.28137
  20
567.68362
  0
VERTEX
  5
2a6
  8
Layer_0
  10
410.7695
  20
567.44028
  0
SEQEND
  0
POLYLINE
  5
2a8
  8
Layer_0
  62
7
  66
1
  10
0
  20
0
  30
0
  0
VERTEX
  5
2a8
  8
Layer_0
  10
420.72198
  20
566.46683
  0
VERTEX
  5
2a9
  8
Layer_0
  10
423.21014
  20
566.22348
  0
VERTEX
  5
2aa
  8
Layer_0
  10
422.72339
  20
561.24722
  0
VERTEX
  5
2ab
  8
Layer_0
  10
420.23529
  20
561.49057
  0
SEQEND
  0
POLYLINE
  5
2ad
  8
Layer_0
  62
7
  70
1
  66
1
  10
0
  20
0
  30
0
  0
VERTEX
  5
2ad
  8
Layer_0
  10
524.35944
  20
610.05487
  0
VERTEX
  5
2ae
  8
Layer_0
  10
444.35944
  20
610.05487
  0
VERTEX
  5
2af
  8
Layer_0
  10
444.35944
  20
610.66995
  42
-0.31242841
  0
VERTEX
  5
2b0
  8
Layer_0
  10
445.65582
  20
612.54211
  0
VERTEX
  5
2b1
  8
Layer_0
  10
518.51923
  20
639.927
  42
-0.090119616
  0
VERTEX
  5
2b2
  8
Layer_0
  10
519.22284
  20
640.05487
  0
VERTEX
  5
2b3
  8
Layer_0
  10
522.85944
  20
640.05487
  0
VERTEX
  5
2b4
  8
Layer_0
  10
522.85944
  20
625.05487
  0
VERTEX
  5
2b5
  8
Layer_0
  10
524.35944
  20
625.05487
  0
VERTEX
  5
2b6
  8
Layer_0
  10
525.85944
  20
625.05487
  0
VERTEX
  5
2b7
  8
Layer_0
  10
525.85944
  20
640.05487
  0
VERTEX
  5
2b8
  8
Layer_0
  10
529.49603
  20
640.05487
  42
-0.090119616
  0
VERTEX
  5
2b9
  8
Layer_0
  10
530.19965
  20
639.927
  0
VERTEX
  5
2ba
  8
Layer_0
  10
603.06305
  20
612.54211
  42
-0.31242848
  0
VERTEX
  5
2bb
  8
Layer_0
  10
604.35944
  20
610.66995
  0
VERTEX
  5
2bc
  8
Layer_0
  10
604.35944
  20
610.05487
  0
SEQEND
  0
ENDSEC
  0
EOF
